{"glyphs":{"0":{"ha":608,"x_min":0,"x_max":521,"o":"m 347 174 l 347 868 l 174 868 l 174 174 l 347 174 m 0 0 l 0 1042 l 521 1042 l 521 0 l 0 0 z "},"1":{"ha":260,"x_min":0,"x_max":174,"o":"m 0 0 l 0 1042 l 174 1042 l 174 0 l 0 0 z "},"2":{"ha":608,"x_min":0,"x_max":521,"o":"m 0 0 l 0 608 l 347 608 l 347 868 l 0 868 l 0 1042 l 521 1042 l 521 434 l 174 434 l 174 174 l 521 174 l 521 0 l 0 0 z "},"3":{"ha":608,"x_min":0,"x_max":521,"o":"m 0 0 l 0 174 l 347 174 l 347 434 l 0 434 l 0 608 l 347 608 l 347 868 l 0 868 l 0 1042 l 521 1042 l 521 0 l 0 0 z "},"4":{"ha":608,"x_min":0,"x_max":521,"o":"m 347 0 l 347 434 l 0 434 l 0 1042 l 174 1042 l 174 608 l 347 608 l 347 1042 l 521 1042 l 521 0 l 347 0 z "},"5":{"ha":608,"x_min":0,"x_max":521,"o":"m 0 0 l 0 174 l 347 174 l 347 434 l 0 434 l 0 1042 l 521 1042 l 521 868 l 174 868 l 174 608 l 521 608 l 521 0 l 0 0 z "},"6":{"ha":608,"x_min":0,"x_max":521,"o":"m 347 174 l 347 434 l 174 434 l 174 174 l 347 174 m 0 0 l 0 1042 l 521 1042 l 521 868 l 174 868 l 174 608 l 521 608 l 521 0 l 0 0 z "},"7":{"ha":608,"x_min":0,"x_max":521,"o":"m 347 0 l 347 868 l 0 868 l 0 1042 l 521 1042 l 521 0 l 347 0 z "},"8":{"ha":608,"x_min":0,"x_max":521,"o":"m 347 174 l 347 434 l 174 434 l 174 174 l 347 174 m 347 608 l 347 868 l 174 868 l 174 608 l 347 608 m 0 0 l 0 1042 l 521 1042 l 521 0 l 0 0 z "},"9":{"ha":608,"x_min":0,"x_max":521,"o":"m 347 608 l 347 868 l 174 868 l 174 608 l 347 608 m 0 0 l 0 174 l 347 174 l 347 434 l 0 434 l 0 1042 l 521 1042 l 521 0 l 0 0 z "}," ":{"ha":472,"x_min":0,"x_max":0,"o":""},"!":{"ha":260,"x_min":0,"x_max":174,"o":"m 0 0 l 0 174 l 174 174 l 174 0 l 0 0 m 0 347 l 0 1042 l 174 1042 l 174 347 l 0 347 z "},"#":{"ha":955,"x_min":0,"x_max":868,"o":"m 521 347 l 521 521 l 347 521 l 347 347 l 521 347 m 174 0 l 174 174 l 0 174 l 0 347 l 174 347 l 174 521 l 0 521 l 0 694 l 174 694 l 174 868 l 347 868 l 347 694 l 521 694 l 521 868 l 694 868 l 694 694 l 868 694 l 868 521 l 694 521 l 694 347 l 868 347 l 868 174 l 694 174 l 694 0 l 521 0 l 521 174 l 347 174 l 347 0 l 174 0 z "},",":{"ha":260,"x_min":0,"x_max":174,"o":"m 0 -174 l 0 174 l 174 174 l 174 -174 l 0 -174 z "},".":{"ha":260,"x_min":0,"x_max":174,"o":"m 0 0 l 0 174 l 174 174 l 174 0 l 0 0 z "},"?":{"ha":608,"x_min":0,"x_max":521,"o":"m 174 0 l 174 174 l 347 174 l 347 0 l 174 0 m 174 347 l 174 694 l 347 694 l 347 868 l 0 868 l 0 1042 l 521 1042 l 521 521 l 347 521 l 347 347 l 174 347 z "},"a":{"ha":608,"x_min":0,"x_max":521,"o":"m 347 174 l 347 260 l 174 260 l 174 174 l 347 174 m 0 0 l 0 434 l 347 434 l 347 521 l 0 521 l 0 694 l 521 694 l 521 0 l 0 0 z "},"b":{"ha":608,"x_min":0,"x_max":521,"o":"m 347 174 l 347 521 l 174 521 l 174 174 l 347 174 m 0 0 l 0 955 l 174 955 l 174 694 l 521 694 l 521 0 l 0 0 z "},"c":{"ha":608,"x_min":0,"x_max":521,"o":"m 0 0 l 0 694 l 521 694 l 521 521 l 174 521 l 174 174 l 521 174 l 521 0 l 0 0 z "},"d":{"ha":608,"x_min":0,"x_max":521,"o":"m 347 174 l 347 521 l 174 521 l 174 174 l 347 174 m 0 0 l 0 694 l 347 694 l 347 955 l 521 955 l 521 0 l 0 0 z "},"e":{"ha":608,"x_min":0,"x_max":521,"o":"m 347 434 l 347 521 l 174 521 l 174 434 l 347 434 m 0 0 l 0 694 l 521 694 l 521 260 l 174 260 l 174 174 l 521 174 l 521 0 l 0 0 z "},"f":{"ha":434,"x_min":0,"x_max":347,"o":"m 0 0 l 0 955 l 347 955 l 347 781 l 174 781 l 174 694 l 347 694 l 347 521 l 174 521 l 174 0 l 0 0 z "},"g":{"ha":608,"x_min":0,"x_max":521,"o":"m 347 174 l 347 521 l 174 521 l 174 174 l 347 174 m 0 -260 l 0 -87 l 347 -87 l 347 0 l 0 0 l 0 694 l 521 694 l 521 -260 l 0 -260 z "},"h":{"ha":608,"x_min":0,"x_max":521,"o":"m 0 0 l 0 955 l 174 955 l 174 694 l 521 694 l 521 0 l 347 0 l 347 521 l 174 521 l 174 0 l 0 0 z "},"i":{"ha":260,"x_min":0,"x_max":174,"o":"m 0 0 l 0 694 l 174 694 l 174 0 l 0 0 m 0 781 l 0 955 l 174 955 l 174 781 l 0 781 z "},"j":{"ha":434,"x_min":0,"x_max":347,"o":"m 0 -260 l 0 -87 l 174 -87 l 174 694 l 347 694 l 347 -260 l 0 -260 m 174 781 l 174 955 l 347 955 l 347 781 l 174 781 z "},"k":{"ha":608,"x_min":0,"x_max":521,"o":"m 0 0 l 0 955 l 174 955 l 174 521 l 347 521 l 347 781 l 521 781 l 521 0 l 347 0 l 347 347 l 174 347 l 174 0 l 0 0 z "},"l":{"ha":260,"x_min":0,"x_max":174,"o":"m 0 0 l 0 955 l 174 955 l 174 0 l 0 0 z "},"m":{"ha":955,"x_min":0,"x_max":868,"o":"m 0 0 l 0 694 l 868 694 l 868 0 l 694 0 l 694 521 l 521 521 l 521 0 l 347 0 l 347 521 l 174 521 l 174 0 l 0 0 z "},"n":{"ha":608,"x_min":0,"x_max":521,"o":"m 0 0 l 0 694 l 521 694 l 521 0 l 347 0 l 347 521 l 174 521 l 174 0 l 0 0 z "},"o":{"ha":608,"x_min":0,"x_max":521,"o":"m 347 174 l 347 521 l 174 521 l 174 174 l 347 174 m 0 0 l 0 694 l 521 694 l 521 0 l 0 0 z "},"p":{"ha":608,"x_min":0,"x_max":521,"o":"m 347 174 l 347 521 l 174 521 l 174 174 l 347 174 m 0 -260 l 0 694 l 521 694 l 521 0 l 174 0 l 174 -260 l 0 -260 z "},"q":{"ha":608,"x_min":0,"x_max":521,"o":"m 347 174 l 347 521 l 174 521 l 174 174 l 347 174 m 347 -260 l 347 0 l 0 0 l 0 694 l 521 694 l 521 -260 l 347 -260 z "},"r":{"ha":608,"x_min":0,"x_max":521,"o":"m 0 0 l 0 694 l 521 694 l 521 521 l 174 521 l 174 0 l 0 0 z "},"s":{"ha":608,"x_min":0,"x_max":521,"o":"m 0 0 l 0 174 l 347 174 l 347 260 l 0 260 l 0 694 l 521 694 l 521 521 l 174 521 l 174 434 l 521 434 l 521 0 l 0 0 z "},"t":{"ha":608,"x_min":0,"x_max":521,"o":"m 174 0 l 174 521 l 0 521 l 0 694 l 174 694 l 174 955 l 347 955 l 347 694 l 521 694 l 521 521 l 347 521 l 347 0 l 174 0 z "},"u":{"ha":608,"x_min":0,"x_max":521,"o":"m 0 0 l 0 694 l 174 694 l 174 174 l 347 174 l 347 694 l 521 694 l 521 0 l 0 0 z "},"v":{"ha":608,"x_min":0,"x_max":521,"o":"m 174 0 l 174 174 l 347 174 l 347 0 l 174 0 m 0 174 l 0 694 l 174 694 l 174 174 l 0 174 m 347 174 l 347 694 l 521 694 l 521 174 l 347 174 z "},"w":{"ha":955,"x_min":0,"x_max":868,"o":"m 0 0 l 0 694 l 174 694 l 174 174 l 347 174 l 347 521 l 521 521 l 521 174 l 694 174 l 694 694 l 868 694 l 868 0 l 0 0 z "},"x":{"ha":608,"x_min":0,"x_max":521,"o":"m 0 0 l 0 694 l 174 694 l 174 434 l 347 434 l 347 694 l 521 694 l 521 0 l 347 0 l 347 260 l 174 260 l 174 0 l 0 0 z "},"y":{"ha":608,"x_min":0,"x_max":521,"o":"m 0 -260 l 0 -87 l 347 -87 l 347 0 l 0 0 l 0 694 l 174 694 l 174 174 l 347 174 l 347 694 l 521 694 l 521 -260 l 0 -260 z "},"z":{"ha":608,"x_min":0,"x_max":521,"o":"m 0 0 l 0 434 l 347 434 l 347 521 l 0 521 l 0 694 l 521 694 l 521 260 l 174 260 l 174 174 l 521 174 l 521 0 l 0 0 z "},"A":{"ha":608,"x_min":0,"x_max":521,"o":"m 347 174 l 347 260 l 174 260 l 174 174 l 347 174 m 0 0 l 0 434 l 347 434 l 347 521 l 0 521 l 0 694 l 521 694 l 521 0 l 0 0 z "},"B":{"ha":608,"x_min":0,"x_max":521,"o":"m 347 174 l 347 521 l 174 521 l 174 174 l 347 174 m 0 0 l 0 955 l 174 955 l 174 694 l 521 694 l 521 0 l 0 0 z "},"C":{"ha":608,"x_min":0,"x_max":521,"o":"m 0 0 l 0 694 l 521 694 l 521 521 l 174 521 l 174 174 l 521 174 l 521 0 l 0 0 z "},"D":{"ha":608,"x_min":0,"x_max":521,"o":"m 347 174 l 347 521 l 174 521 l 174 174 l 347 174 m 0 0 l 0 694 l 347 694 l 347 955 l 521 955 l 521 0 l 0 0 z "},"E":{"ha":608,"x_min":0,"x_max":521,"o":"m 347 434 l 347 521 l 174 521 l 174 434 l 347 434 m 0 0 l 0 694 l 521 694 l 521 260 l 174 260 l 174 174 l 521 174 l 521 0 l 0 0 z "},"F":{"ha":434,"x_min":0,"x_max":347,"o":"m 0 0 l 0 955 l 347 955 l 347 781 l 174 781 l 174 694 l 347 694 l 347 521 l 174 521 l 174 0 l 0 0 z "},"G":{"ha":608,"x_min":0,"x_max":521,"o":"m 347 174 l 347 521 l 174 521 l 174 174 l 347 174 m 0 -260 l 0 -87 l 347 -87 l 347 0 l 0 0 l 0 694 l 521 694 l 521 -260 l 0 -260 z "},"H":{"ha":608,"x_min":0,"x_max":521,"o":"m 0 0 l 0 955 l 174 955 l 174 694 l 521 694 l 521 0 l 347 0 l 347 521 l 174 521 l 174 0 l 0 0 z "},"I":{"ha":260,"x_min":0,"x_max":174,"o":"m 0 0 l 0 694 l 174 694 l 174 0 l 0 0 m 0 781 l 0 955 l 174 955 l 174 781 l 0 781 z "},"J":{"ha":434,"x_min":0,"x_max":347,"o":"m 0 -260 l 0 -87 l 174 -87 l 174 694 l 347 694 l 347 -260 l 0 -260 m 174 781 l 174 955 l 347 955 l 347 781 l 174 781 z "},"K":{"ha":608,"x_min":0,"x_max":521,"o":"m 0 0 l 0 955 l 174 955 l 174 521 l 347 521 l 347 781 l 521 781 l 521 0 l 347 0 l 347 347 l 174 347 l 174 0 l 0 0 z "},"L":{"ha":260,"x_min":0,"x_max":174,"o":"m 0 0 l 0 955 l 174 955 l 174 0 l 0 0 z "},"M":{"ha":955,"x_min":0,"x_max":868,"o":"m 0 0 l 0 694 l 868 694 l 868 0 l 694 0 l 694 521 l 521 521 l 521 0 l 347 0 l 347 521 l 174 521 l 174 0 l 0 0 z "},"N":{"ha":608,"x_min":0,"x_max":521,"o":"m 0 0 l 0 694 l 521 694 l 521 0 l 347 0 l 347 521 l 174 521 l 174 0 l 0 0 z "},"O":{"ha":608,"x_min":0,"x_max":521,"o":"m 347 174 l 347 521 l 174 521 l 174 174 l 347 174 m 0 0 l 0 694 l 521 694 l 521 0 l 0 0 z "},"P":{"ha":608,"x_min":0,"x_max":521,"o":"m 347 174 l 347 521 l 174 521 l 174 174 l 347 174 m 0 -260 l 0 694 l 521 694 l 521 0 l 174 0 l 174 -260 l 0 -260 z "},"Q":{"ha":608,"x_min":0,"x_max":521,"o":"m 347 174 l 347 521 l 174 521 l 174 174 l 347 174 m 347 -260 l 347 0 l 0 0 l 0 694 l 521 694 l 521 -260 l 347 -260 z "},"R":{"ha":608,"x_min":0,"x_max":521,"o":"m 0 0 l 0 694 l 521 694 l 521 521 l 174 521 l 174 0 l 0 0 z "},"S":{"ha":608,"x_min":0,"x_max":521,"o":"m 0 0 l 0 174 l 347 174 l 347 260 l 0 260 l 0 694 l 521 694 l 521 521 l 174 521 l 174 434 l 521 434 l 521 0 l 0 0 z "},"T":{"ha":608,"x_min":0,"x_max":521,"o":"m 174 0 l 174 521 l 0 521 l 0 694 l 174 694 l 174 955 l 347 955 l 347 694 l 521 694 l 521 521 l 347 521 l 347 0 l 174 0 z "},"U":{"ha":608,"x_min":0,"x_max":521,"o":"m 0 0 l 0 694 l 174 694 l 174 174 l 347 174 l 347 694 l 521 694 l 521 0 l 0 0 z "},"V":{"ha":608,"x_min":0,"x_max":521,"o":"m 174 0 l 174 174 l 347 174 l 347 0 l 174 0 m 0 174 l 0 694 l 174 694 l 174 174 l 0 174 m 347 174 l 347 694 l 521 694 l 521 174 l 347 174 z "},"W":{"ha":955,"x_min":0,"x_max":868,"o":"m 0 0 l 0 694 l 174 694 l 174 174 l 347 174 l 347 521 l 521 521 l 521 174 l 694 174 l 694 694 l 868 694 l 868 0 l 0 0 z "},"X":{"ha":608,"x_min":0,"x_max":521,"o":"m 0 0 l 0 694 l 174 694 l 174 434 l 347 434 l 347 694 l 521 694 l 521 0 l 347 0 l 347 260 l 174 260 l 174 0 l 0 0 z "},"Y":{"ha":608,"x_min":0,"x_max":521,"o":"m 0 -260 l 0 -87 l 347 -87 l 347 0 l 0 0 l 0 694 l 174 694 l 174 174 l 347 174 l 347 694 l 521 694 l 521 -260 l 0 -260 z "},"Z":{"ha":608,"x_min":0,"x_max":521,"o":"m 0 0 l 0 434 l 347 434 l 347 521 l 0 521 l 0 694 l 521 694 l 521 260 l 174 260 l 174 174 l 521 174 l 521 0 l 0 0 z "}}}
